<svg xmlns="http://www.w3.org/2000/svg" xmlns:xlink="http://www.w3.org/1999/xlink" width="500" zoomAndPan="magnify" viewBox="0 0 375 374.999991" height="500" preserveAspectRatio="xMidYMid meet" version="1.0"><defs><clipPath id="b7f5675a34"><path d="M 74.269531 80.152344 L 327.570312 80.152344 L 327.570312 294.652344 L 74.269531 294.652344 Z M 74.269531 80.152344 " clip-rule="nonzero"/></clipPath></defs><g clip-path="url(#b7f5675a34)"><path fill="#ffffff" d="M 76.992188 102.585938 C 78.917969 100.648438 81.210938 99.6875 83.851562 99.6875 L 266.9375 99.6875 C 267.046875 98.972656 267.277344 97.679688 267.632812 95.796875 C 267.984375 93.914062 268.265625 92.417969 268.46875 91.300781 C 268.675781 90.1875 269.050781 88.835938 269.609375 87.265625 C 270.171875 85.691406 270.832031 84.441406 271.589844 83.527344 C 272.359375 82.613281 273.371094 81.828125 274.640625 81.160156 C 275.910156 80.503906 277.355469 80.171875 278.984375 80.171875 L 318.011719 80.171875 C 320.652344 80.171875 322.949219 81.140625 324.875 83.070312 C 326.800781 84.996094 327.769531 87.289062 327.769531 89.929688 C 327.769531 92.570312 326.800781 94.855469 324.875 96.792969 C 322.9375 98.722656 320.652344 99.6875 318.011719 99.6875 L 286.910156 99.6875 L 259.933594 225.152344 C 260.132812 225.566406 261.175781 227.492188 263.058594 230.945312 C 264.9375 234.40625 266.4375 237.433594 267.550781 240.015625 C 268.675781 242.613281 269.234375 244.621094 269.234375 246.039062 C 269.234375 248.6875 268.265625 250.972656 266.335938 252.898438 C 264.398438 254.828125 262.117188 255.804688 259.476562 255.804688 L 249.925781 255.804688 C 255.226562 255.855469 259.753906 257.753906 263.515625 261.515625 C 267.324219 265.324219 269.234375 269.929688 269.234375 275.3125 C 269.234375 280.703125 267.324219 285.296875 263.515625 289.109375 C 259.703125 292.917969 255.109375 294.828125 249.71875 294.828125 C 244.335938 294.828125 239.730469 292.917969 235.921875 289.109375 C 232.113281 285.296875 230.203125 280.703125 230.203125 275.3125 C 230.203125 269.929688 232.113281 265.324219 235.921875 261.515625 C 239.679688 257.753906 244.21875 255.855469 249.511719 255.804688 L 113.328125 255.804688 C 118.625 255.855469 123.160156 257.753906 126.921875 261.515625 C 130.722656 265.324219 132.632812 269.929688 132.632812 275.3125 C 132.632812 280.703125 130.722656 285.296875 126.921875 289.109375 C 123.113281 292.917969 118.507812 294.828125 113.117188 294.828125 C 107.738281 294.828125 103.132812 292.917969 99.320312 289.109375 C 95.507812 285.296875 93.609375 280.703125 93.609375 275.3125 C 93.609375 269.929688 95.507812 265.324219 99.320312 261.515625 C 103.078125 257.753906 107.617188 255.855469 112.910156 255.804688 L 103.367188 255.804688 C 100.726562 255.804688 98.441406 254.828125 96.507812 252.898438 C 94.578125 250.972656 93.609375 248.6875 93.609375 246.039062 C 93.609375 243.398438 94.578125 241.113281 96.507812 239.1875 C 98.441406 237.25 100.726562 236.28125 103.367188 236.28125 L 243.621094 236.28125 C 241.183594 231.414062 239.960938 228.15625 239.960938 226.53125 C 239.960938 225.507812 240.085938 224.394531 240.34375 223.179688 C 240.597656 221.957031 240.898438 220.613281 241.257812 219.132812 C 241.613281 217.660156 241.839844 216.574219 241.941406 215.859375 L 82.785156 197.257812 C 80.242188 196.957031 78.160156 195.859375 76.535156 193.988281 C 74.910156 192.105469 74.09375 189.941406 74.09375 187.5 L 74.09375 109.445312 C 74.09375 106.804688 75.0625 104.511719 76.992188 102.585938 " fill-opacity="1" fill-rule="nonzero"/></g></svg>