<svg xmlns="http://www.w3.org/2000/svg" xmlns:xlink="http://www.w3.org/1999/xlink" width="500" zoomAndPan="magnify" viewBox="0 0 375 374.999991" height="500" preserveAspectRatio="xMidYMid meet" version="1.0"><defs><clipPath id="796d97409d"><path d="M 37.5 52.398438 L 356.789062 52.398438 L 356.789062 322.398438 L 37.5 322.398438 Z M 37.5 52.398438 " clip-rule="nonzero"/></clipPath></defs><g clip-path="url(#796d97409d)"><path fill="#000000" d="M 41.175781 80.636719 C 43.597656 78.199219 46.488281 76.988281 49.808594 76.988281 L 280.230469 76.988281 C 280.367188 76.089844 280.65625 74.460938 281.105469 72.089844 C 281.542969 69.722656 281.898438 67.839844 282.152344 66.433594 C 282.414062 65.03125 282.886719 63.332031 283.589844 61.355469 C 284.300781 59.375 285.128906 57.800781 286.082031 56.652344 C 287.050781 55.5 288.324219 54.511719 289.921875 53.671875 C 291.523438 52.84375 293.339844 52.429688 295.386719 52.429688 L 344.507812 52.429688 C 347.832031 52.429688 350.71875 53.648438 353.144531 56.078125 C 355.570312 58.5 356.789062 61.386719 356.789062 64.707031 C 356.789062 68.035156 355.570312 70.910156 353.144531 73.347656 C 350.707031 75.773438 347.832031 76.988281 344.507812 76.988281 L 305.367188 76.988281 L 271.410156 234.890625 C 271.664062 235.410156 272.972656 237.835938 275.34375 242.179688 C 277.710938 246.539062 279.597656 250.34375 281 253.597656 C 282.414062 256.867188 283.117188 259.394531 283.117188 261.175781 C 283.117188 264.507812 281.898438 267.386719 279.46875 269.8125 C 277.035156 272.238281 274.160156 273.46875 270.835938 273.46875 L 258.820312 273.46875 C 265.488281 273.53125 271.1875 275.921875 275.917969 280.65625 C 280.714844 285.449219 283.117188 291.246094 283.117188 298.019531 C 283.117188 304.804688 280.714844 310.585938 275.917969 315.382812 C 271.121094 320.175781 265.34375 322.578125 258.558594 322.578125 C 251.78125 322.578125 245.984375 320.175781 241.191406 315.382812 C 236.398438 310.585938 233.996094 304.804688 233.996094 298.019531 C 233.996094 291.246094 236.398438 285.449219 241.191406 280.65625 C 245.925781 275.921875 251.632812 273.53125 258.296875 273.46875 L 86.90625 273.46875 C 93.570312 273.53125 99.28125 275.921875 104.015625 280.65625 C 108.796875 285.449219 111.199219 291.246094 111.199219 298.019531 C 111.199219 304.804688 108.796875 310.585938 104.015625 315.382812 C 99.21875 320.175781 93.421875 322.578125 86.640625 322.578125 C 79.867188 322.578125 74.070312 320.175781 69.273438 315.382812 C 64.480469 310.585938 62.089844 304.804688 62.089844 298.019531 C 62.089844 291.246094 64.480469 285.449219 69.273438 280.65625 C 74.007812 275.921875 79.71875 273.53125 86.378906 273.46875 L 74.371094 273.46875 C 71.046875 273.46875 68.171875 272.238281 65.734375 269.8125 C 63.308594 267.386719 62.089844 264.507812 62.089844 261.175781 C 62.089844 257.855469 63.308594 254.980469 65.734375 252.554688 C 68.171875 250.117188 71.046875 248.898438 74.371094 248.898438 L 250.886719 248.898438 C 247.816406 242.769531 246.277344 238.671875 246.277344 236.628906 C 246.277344 235.339844 246.4375 233.9375 246.757812 232.410156 C 247.078125 230.867188 247.457031 229.175781 247.910156 227.316406 C 248.355469 225.460938 248.644531 224.09375 248.769531 223.195312 L 48.464844 199.785156 C 45.269531 199.40625 42.644531 198.023438 40.601562 195.671875 C 38.554688 193.300781 37.527344 190.574219 37.527344 187.503906 L 37.527344 89.269531 C 37.527344 85.949219 38.746094 83.0625 41.175781 80.636719 " fill-opacity="1" fill-rule="nonzero"/></g><path fill="#ffffff" d="M 210.152344 105.425781 C 189.386719 84.664062 155.714844 84.664062 134.945312 105.425781 C 114.179688 126.183594 114.1875 159.863281 134.945312 180.628906 C 155.707031 201.398438 189.386719 201.398438 210.152344 180.628906 C 230.921875 159.863281 230.921875 126.191406 210.152344 105.425781 Z M 130.140625 143.027344 C 130.140625 141.089844 130.273438 139.160156 130.539062 137.238281 C 130.804688 135.316406 131.199219 133.421875 131.722656 131.554688 C 132.25 129.6875 132.898438 127.867188 133.671875 126.089844 C 134.449219 124.3125 135.339844 122.59375 136.351562 120.941406 C 137.359375 119.285156 138.480469 117.707031 139.707031 116.203125 C 140.933594 114.703125 142.253906 113.292969 143.675781 111.972656 C 145.09375 110.652344 146.597656 109.433594 148.1875 108.320312 C 149.773438 107.207031 151.429688 106.203125 153.152344 105.316406 C 154.878906 104.429688 156.652344 103.664062 158.484375 103.019531 C 160.3125 102.378906 162.175781 101.863281 164.078125 101.472656 C 165.976562 101.085938 167.894531 100.828125 169.828125 100.703125 C 171.765625 100.582031 173.699219 100.585938 175.632812 100.726562 C 177.566406 100.867188 179.480469 101.140625 181.378906 101.542969 C 183.277344 101.945312 185.136719 102.476562 186.960938 103.136719 C 188.785156 103.792969 190.554688 104.574219 192.273438 105.472656 C 193.988281 106.375 195.636719 107.386719 197.214844 108.515625 L 138.039062 167.691406 C 135.457031 164.097656 133.492188 160.195312 132.144531 155.984375 C 130.796875 151.769531 130.125 147.449219 130.140625 143.027344 Z M 202.539062 173.015625 C 201.660156 173.894531 200.742188 174.734375 199.792969 175.53125 C 198.839844 176.332031 197.851562 177.085938 196.832031 177.796875 C 195.8125 178.507812 194.765625 179.171875 193.6875 179.792969 C 192.609375 180.414062 191.507812 180.984375 190.378906 181.503906 C 189.25 182.027344 188.101562 182.5 186.933594 182.921875 C 185.765625 183.34375 184.578125 183.710938 183.375 184.03125 C 182.175781 184.347656 180.960938 184.613281 179.738281 184.824219 C 178.511719 185.03125 177.28125 185.191406 176.039062 185.292969 C 174.800781 185.394531 173.5625 185.441406 172.316406 185.4375 C 171.074219 185.429688 169.835938 185.367188 168.597656 185.253906 C 167.359375 185.136719 166.128906 184.96875 164.90625 184.742188 C 163.683594 184.519531 162.472656 184.242188 161.273438 183.914062 C 160.078125 183.582031 158.894531 183.199219 157.730469 182.765625 C 156.566406 182.332031 155.421875 181.847656 154.300781 181.3125 C 153.175781 180.78125 152.082031 180.199219 151.007812 179.566406 C 149.9375 178.9375 148.898438 178.257812 147.886719 177.535156 L 207.0625 118.363281 C 207.785156 119.375 208.460938 120.414062 209.09375 121.488281 C 209.722656 122.558594 210.304688 123.65625 210.839844 124.777344 C 211.375 125.898438 211.859375 127.042969 212.292969 128.207031 C 212.726562 129.371094 213.109375 130.554688 213.4375 131.753906 C 213.769531 132.949219 214.046875 134.160156 214.269531 135.382812 C 214.492188 136.605469 214.664062 137.835938 214.777344 139.074219 C 214.894531 140.3125 214.953125 141.550781 214.960938 142.796875 C 214.96875 144.039062 214.917969 145.277344 214.816406 146.519531 C 214.714844 147.757812 214.558594 148.988281 214.347656 150.214844 C 214.136719 151.4375 213.871094 152.652344 213.554688 153.855469 C 213.238281 155.054688 212.867188 156.242188 212.445312 157.410156 C 212.027344 158.582031 211.554688 159.730469 211.03125 160.855469 C 210.507812 161.984375 209.9375 163.085938 209.316406 164.164062 C 208.699219 165.242188 208.035156 166.292969 207.320312 167.308594 C 206.609375 168.328125 205.855469 169.316406 205.058594 170.269531 C 204.257812 171.222656 203.421875 172.136719 202.542969 173.015625 Z M 202.539062 173.015625 " fill-opacity="1" fill-rule="nonzero"/></svg>