<svg xmlns="http://www.w3.org/2000/svg" xmlns:xlink="http://www.w3.org/1999/xlink" width="881" zoomAndPan="magnify" viewBox="0 0 660.75 119.999999" height="160" preserveAspectRatio="xMidYMid meet" version="1.0"><defs><clipPath id="90a76036b0"><path d="M 0 0.0234375 L 660.5 0.0234375 L 660.5 119.976562 L 0 119.976562 Z M 0 0.0234375 " clip-rule="nonzero"/></clipPath><clipPath id="fb90cdd052"><path d="M 330 3 L 660.5 3 L 660.5 119.976562 L 330 119.976562 Z M 330 3 " clip-rule="nonzero"/></clipPath><clipPath id="a9e9b59bc6"><path d="M -234.632812 30.902344 L 658.753906 -11.867188 L 666.390625 147.640625 L -226.996094 190.40625 Z M -234.632812 30.902344 " clip-rule="nonzero"/></clipPath><clipPath id="d15d75ff4b"><path d="M -5.484375 19.929688 L 658.753906 -11.867188 L 665.066406 119.933594 L 0.828125 151.730469 Z M -5.484375 19.929688 " clip-rule="nonzero"/></clipPath><clipPath id="6527469387"><path d="M -234.652344 30.902344 L 658.738281 -11.867188 L 666.371094 147.640625 L -227.015625 190.410156 Z M -234.652344 30.902344 " clip-rule="nonzero"/></clipPath><clipPath id="618b7c896a"><path d="M 484 22 L 660.5 22 L 660.5 119.976562 L 484 119.976562 Z M 484 22 " clip-rule="nonzero"/></clipPath><clipPath id="d540e98d83"><path d="M -234.632812 30.902344 L 658.753906 -11.867188 L 666.390625 147.640625 L -226.996094 190.40625 Z M -234.632812 30.902344 " clip-rule="nonzero"/></clipPath><clipPath id="a2aa4dea5a"><path d="M -5.484375 19.929688 L 658.753906 -11.867188 L 665.066406 119.933594 L 0.828125 151.730469 Z M -5.484375 19.929688 " clip-rule="nonzero"/></clipPath><clipPath id="7794f2875e"><path d="M -234.652344 30.902344 L 658.738281 -11.867188 L 666.371094 147.640625 L -227.015625 190.410156 Z M -234.652344 30.902344 " clip-rule="nonzero"/></clipPath><clipPath id="138895bbd2"><path d="M 0 54 L 660.5 54 L 660.5 119.976562 L 0 119.976562 Z M 0 54 " clip-rule="nonzero"/></clipPath><clipPath id="8a3347689f"><path d="M -234.632812 30.902344 L 658.753906 -11.867188 L 666.390625 147.640625 L -226.996094 190.40625 Z M -234.632812 30.902344 " clip-rule="nonzero"/></clipPath><clipPath id="9c3e30a864"><path d="M -5.484375 19.929688 L 658.753906 -11.867188 L 665.066406 119.933594 L 0.828125 151.730469 Z M -5.484375 19.929688 " clip-rule="nonzero"/></clipPath><clipPath id="4e3e4e7a1a"><path d="M -234.652344 30.902344 L 658.738281 -11.867188 L 666.371094 147.640625 L -227.015625 190.410156 Z M -234.652344 30.902344 " clip-rule="nonzero"/></clipPath><clipPath id="dfd7a6d03f"><path d="M 0 82 L 660.5 82 L 660.5 119.976562 L 0 119.976562 Z M 0 82 " clip-rule="nonzero"/></clipPath><clipPath id="2954d78a6f"><path d="M -234.632812 30.902344 L 658.753906 -11.867188 L 666.390625 147.640625 L -226.996094 190.40625 Z M -234.632812 30.902344 " clip-rule="nonzero"/></clipPath><clipPath id="e0acc11384"><path d="M -5.484375 19.929688 L 658.753906 -11.867188 L 665.066406 119.933594 L 0.828125 151.730469 Z M -5.484375 19.929688 " clip-rule="nonzero"/></clipPath><clipPath id="efeffafa79"><path d="M -234.652344 30.902344 L 658.738281 -11.867188 L 666.371094 147.640625 L -227.015625 190.410156 Z M -234.652344 30.902344 " clip-rule="nonzero"/></clipPath><clipPath id="d033521ee7"><path d="M 154 0.0234375 L 647 0.0234375 L 647 108 L 154 108 Z M 154 0.0234375 " clip-rule="nonzero"/></clipPath><clipPath id="b0fd145789"><path d="M -234.632812 30.902344 L 658.753906 -11.867188 L 666.390625 147.640625 L -226.996094 190.40625 Z M -234.632812 30.902344 " clip-rule="nonzero"/></clipPath><clipPath id="672830d35a"><path d="M -5.484375 19.929688 L 658.753906 -11.867188 L 665.066406 119.933594 L 0.828125 151.730469 Z M -5.484375 19.929688 " clip-rule="nonzero"/></clipPath><clipPath id="9855633267"><path d="M -234.652344 30.902344 L 658.738281 -11.867188 L 666.371094 147.640625 L -227.015625 190.410156 Z M -234.652344 30.902344 " clip-rule="nonzero"/></clipPath><clipPath id="c834afecf2"><path d="M 0 81.277344 L 198.332031 81.277344 L 198.332031 119.976562 L 0 119.976562 Z M 0 81.277344 " clip-rule="nonzero"/></clipPath><clipPath id="6816de1f98"><path d="M -11.742188 81.277344 L 192.167969 81.277344 C 195.480469 81.277344 198.164062 83.960938 198.164062 87.273438 L 198.164062 120.105469 C 198.164062 123.417969 195.480469 126.101562 192.167969 126.101562 L -11.742188 126.101562 C -15.054688 126.101562 -17.742188 123.417969 -17.742188 120.105469 L -17.742188 87.273438 C -17.742188 83.960938 -15.054688 81.277344 -11.742188 81.277344 Z M -11.742188 81.277344 " clip-rule="nonzero"/></clipPath><clipPath id="1e4738bc59"><path d="M 0 76.679688 L 201.765625 76.679688 L 201.765625 82.71875 L 0 82.71875 Z M 0 76.679688 " clip-rule="nonzero"/></clipPath><clipPath id="d606b7bc15"><path d="M 98.132812 76.679688 C 40.894531 76.679688 -5.5 78.03125 -5.5 79.699219 C -5.5 81.367188 40.894531 82.71875 98.132812 82.71875 C 155.367188 82.71875 201.765625 81.367188 201.765625 79.699219 C 201.765625 78.03125 155.367188 76.679688 98.132812 76.679688 Z M 98.132812 76.679688 " clip-rule="nonzero"/></clipPath></defs><g clip-path="url(#90a76036b0)"><path fill="#ffffff" d="M 0 0.0234375 L 660.5 0.0234375 L 660.5 119.976562 L 0 119.976562 Z M 0 0.0234375 " fill-opacity="1" fill-rule="nonzero"/><path fill="#ffffff" d="M 0 0.0234375 L 660.5 0.0234375 L 660.5 119.976562 L 0 119.976562 Z M 0 0.0234375 " fill-opacity="1" fill-rule="nonzero"/></g><g clip-path="url(#fb90cdd052)"><g clip-path="url(#a9e9b59bc6)"><g clip-path="url(#d15d75ff4b)"><g clip-path="url(#6527469387)"><path fill="#006998" d="M 330.199219 85.597656 C 336.855469 85.277344 422.5 78.214844 450.328125 70.957031 C 478.140625 63.703125 489.414062 51.324219 509.796875 43.671875 C 530.183594 36.035156 552.410156 35.71875 572.691406 25.859375 C 592.980469 16 587.933594 3.664062 600.507812 3.0625 C 609.453125 2.632812 631.09375 16.222656 660.558594 26.179688 L 666.367188 147.527344 L 462.796875 157.273438 L 354.015625 149.613281 Z M 330.199219 85.597656 " fill-opacity="1" fill-rule="evenodd"/></g></g></g></g><g clip-path="url(#618b7c896a)"><g clip-path="url(#d540e98d83)"><g clip-path="url(#a2aa4dea5a)"><g clip-path="url(#7794f2875e)"><path fill="#084582" d="M 660.726562 29.683594 C 647.441406 27.15625 633.171875 24.363281 627.113281 22.886719 C 614.363281 19.796875 607.085938 30.316406 613.796875 38.882812 C 620.519531 47.449219 631.902344 41.347656 629.480469 52.945312 C 627.070312 64.542969 586.585938 58.699219 580.183594 64.5625 C 573.792969 70.425781 580.207031 80.480469 585.554688 83.925781 C 590.914062 87.371094 588.621094 93.773438 570.074219 97.257812 C 551.527344 100.738281 532.46875 101.28125 521.316406 100.519531 C 510.15625 99.757812 484.335938 97.214844 484.335938 97.214844 L 545.632812 128.421875 L 665.605469 131.398438 Z M 607.035156 44.953125 C 607.035156 44.953125 620.132812 45.625 622.5 48.5625 C 624.867188 51.5 626.710938 55.203125 613.621094 56.667969 C 600.527344 58.132812 581.59375 57.273438 575.128906 61.652344 C 568.667969 66.042969 572.496094 76.3125 576.730469 79.632812 C 580.964844 82.949219 584.058594 85.664062 582.742188 87.113281 C 581.421875 88.5625 571.707031 82.925781 565.792969 75.628906 C 559.878906 68.320312 563.625 55.550781 574.914062 51.308594 C 586.207031 47.070312 599.363281 45.320312 601.773438 45.117188 C 604.15625 44.902344 607.035156 44.953125 607.035156 44.953125 Z M 607.035156 44.953125 " fill-opacity="1" fill-rule="evenodd"/></g></g></g></g><g clip-path="url(#138895bbd2)"><g clip-path="url(#8a3347689f)"><g clip-path="url(#9c3e30a864)"><g clip-path="url(#4e3e4e7a1a)"><path fill="#006998" d="M -230.398438 119.734375 C -184.347656 122.582031 -124.589844 124.652344 -54.683594 123.453125 C 114.183594 120.554688 120.980469 92.089844 170.984375 83.773438 C 220.996094 75.453125 221.445312 85.058594 277.191406 72.761719 C 332.949219 60.46875 332.40625 49.390625 360.203125 56.949219 C 388 64.507812 405.28125 85.144531 471.738281 95.289062 C 538.195312 105.433594 562.808594 108.695312 598.492188 95.136719 C 620.160156 86.898438 646.070312 81.476562 663.074219 78.484375 L 666.378906 147.515625 L -227.019531 190.285156 Z M -230.398438 119.734375 " fill-opacity="1" fill-rule="evenodd"/></g></g></g></g><g clip-path="url(#dfd7a6d03f)"><g clip-path="url(#2954d78a6f)"><g clip-path="url(#e0acc11384)"><g clip-path="url(#efeffafa79)"><path fill="#084582" d="M -95.75 184.011719 C -103.550781 182.148438 -111.8125 180.488281 -120.082031 179.339844 C -155.902344 174.394531 -151.007812 152.695312 -136.75 148.679688 C -122.492188 144.664062 -79.089844 152.953125 11.445312 147.5 C 101.992188 142.058594 145.828125 128.859375 169.632812 130.667969 C 193.441406 132.492188 197.957031 164.855469 111.640625 165.65625 C 75.144531 165.992188 48.839844 171.601562 30.644531 177.960938 Z M 550.15625 104.148438 L 550.246094 104.152344 C 550.761719 104.152344 551.277344 104.148438 551.78125 104.148438 L 552.070312 104.144531 C 552.539062 104.132812 553.019531 104.132812 553.5 104.121094 L 553.726562 104.121094 C 554.207031 104.109375 554.6875 104.097656 555.167969 104.085938 L 555.390625 104.074219 C 555.882812 104.0625 556.375 104.039062 556.855469 104.015625 L 557.023438 104.019531 C 557.503906 103.996094 557.984375 103.972656 558.460938 103.9375 L 558.707031 103.925781 C 559.175781 103.90625 559.65625 103.871094 560.136719 103.847656 L 560.304688 103.828125 C 560.785156 103.792969 561.265625 103.761719 561.742188 103.726562 L 561.933594 103.71875 C 562.960938 103.632812 563.984375 103.539062 565.007812 103.433594 L 565.265625 103.410156 C 565.710938 103.367188 566.144531 103.3125 566.589844 103.257812 L 566.8125 103.238281 C 567.257812 103.183594 567.714844 103.128906 568.160156 103.0625 L 568.394531 103.039062 C 568.835938 102.984375 569.269531 102.917969 569.714844 102.851562 L 569.960938 102.816406 C 570.40625 102.753906 570.859375 102.6875 571.292969 102.621094 L 571.515625 102.585938 C 571.984375 102.507812 572.4375 102.429688 572.894531 102.355469 L 573.039062 102.335938 C 573.527344 102.257812 574.023438 102.152344 574.523438 102.0625 L 574.570312 102.0625 L 574.582031 102.058594 C 575.078125 101.957031 575.578125 101.867188 576.078125 101.765625 L 576.234375 101.734375 C 576.699219 101.644531 577.152344 101.546875 577.628906 101.445312 L 577.804688 101.402344 C 578.269531 101.300781 578.738281 101.203125 579.203125 101.101562 L 579.335938 101.0625 C 579.800781 100.960938 580.265625 100.847656 580.742188 100.738281 L 580.917969 100.695312 C 581.382812 100.582031 581.835938 100.472656 582.300781 100.347656 L 582.476562 100.308594 C 582.941406 100.183594 583.40625 100.0625 583.882812 99.9375 L 584.023438 99.898438 C 584.511719 99.761719 584.996094 99.628906 585.484375 99.492188 L 585.550781 99.476562 L 585.605469 99.464844 C 586.089844 99.316406 586.597656 99.183594 587.082031 99.035156 L 587.128906 99.023438 L 587.160156 99.011719 C 587.667969 98.863281 588.175781 98.703125 588.671875 98.558594 L 588.804688 98.515625 C 589.277344 98.359375 589.753906 98.214844 590.238281 98.070312 L 590.425781 98.003906 C 590.886719 97.847656 591.339844 97.703125 591.8125 97.546875 L 592.046875 97.46875 C 592.507812 97.3125 592.972656 97.15625 593.445312 97 L 593.652344 96.933594 C 594.136719 96.765625 594.621094 96.59375 595.117188 96.414062 L 595.25 96.375 C 595.777344 96.195312 596.308594 96 596.84375 95.796875 C 597.40625 95.589844 597.957031 95.394531 598.515625 95.167969 C 598.515625 95.167969 586.507812 104.808594 556.632812 115.496094 C 526.753906 126.183594 424.113281 118.878906 395.527344 110.253906 C 366.953125 101.625 353.53125 92.273438 364.707031 85.8125 C 375.894531 79.363281 393.585938 85.167969 419.089844 91.347656 C 444.59375 97.539062 483.988281 103.792969 496.417969 104.125 C 508.632812 104.445312 548.757812 104.167969 550.179688 104.15625 L 550.191406 104.15625 Z M -127.375 185.527344 L -227.019531 190.296875 L -228.59375 157.402344 C -221.589844 158.285156 -212.855469 160.070312 -204.503906 163.582031 C -186.351562 171.234375 -168.605469 178.152344 -148.441406 181.257812 C -141.28125 182.359375 -133.910156 183.9375 -127.375 185.527344 Z M 290.085938 132.40625 C 290.085938 132.40625 312.375 141.332031 340.9375 145.511719 C 369.488281 149.699219 385.292969 146.910156 388.164062 144.914062 C 391.035156 142.921875 397.765625 140.375 367.800781 137.5625 C 337.835938 134.738281 319.816406 126.152344 309.40625 125.363281 C 298.992188 124.566406 290.738281 124.503906 288.269531 127.214844 C 285.792969 129.925781 290.085938 132.40625 290.085938 132.40625 Z M 663.703125 91.859375 L 666.367188 147.527344 L 559.0625 152.664062 C 535.167969 151.125 507.6875 149.222656 490.3125 147.71875 C 454.582031 144.621094 433.25 140.453125 409.148438 140.132812 C 385.042969 139.800781 385.039062 124.257812 442.714844 128.898438 C 500.378906 133.539062 542.082031 137.46875 575.65625 134.375 C 609.234375 131.28125 636.441406 118.875 628.421875 114.082031 C 620.402344 109.28125 602.785156 120.5 599.488281 113.613281 C 596.195312 106.738281 615.136719 100.277344 639.347656 94.679688 C 647.894531 92.703125 656.332031 91.976562 663.703125 91.859375 Z M 443.320312 158.207031 L 168.839844 171.347656 C 178.25 169.644531 188.273438 167.207031 196.4375 163.820312 C 218.609375 154.621094 235.261719 138.640625 255.523438 136.183594 C 275.789062 133.726562 284.652344 140.714844 312.367188 146.789062 C 340.089844 152.863281 358.121094 156.058594 381.992188 151.574219 C 404.378906 147.382812 436.917969 145.980469 443.320312 158.207031 Z M 194.382812 124.855469 C 194.382812 124.855469 188.804688 139.9375 201.394531 139.703125 C 213.988281 139.46875 235.195312 129.578125 250.3125 128.105469 C 265.433594 126.632812 276.070312 131.867188 281.71875 129.933594 C 287.367188 128.007812 262.554688 116.785156 238.957031 115.320312 C 215.359375 113.855469 204 116.714844 200.101562 118.476562 C 196.199219 120.242188 194.382812 124.855469 194.382812 124.855469 Z M 194.382812 124.855469 " fill-opacity="1" fill-rule="evenodd"/></g></g></g></g><g clip-path="url(#d033521ee7)"><g clip-path="url(#b0fd145789)"><g clip-path="url(#672830d35a)"><g clip-path="url(#9855633267)"><path fill="#cdd9d7" d="M 332.921875 38.445312 C 339.703125 38.121094 345.71875 41.992188 348.445312 47.761719 C 349.433594 47.3125 350.527344 47.046875 351.679688 46.992188 C 354 46.882812 356.152344 47.664062 357.796875 49.046875 C 358.691406 47.117188 360.59375 45.726562 362.859375 45.621094 C 366.109375 45.464844 368.859375 47.960938 369.015625 51.195312 C 369.054688 51.996094 368.933594 52.761719 368.675781 53.480469 C 371.136719 54.601562 372.910156 57.035156 373.050781 59.933594 C 373.246094 64.074219 370.058594 67.578125 365.925781 67.777344 C 362.316406 67.949219 359.191406 65.550781 358.316406 62.203125 C 356.808594 63.664062 354.78125 64.609375 352.527344 64.71875 C 350.671875 64.804688 348.925781 64.320312 347.460938 63.417969 C 344.710938 67.730469 339.972656 70.683594 334.492188 70.949219 C 332.671875 71.035156 330.902344 70.816406 329.246094 70.347656 C 328.117188 75.78125 323.417969 79.984375 317.609375 80.261719 C 312.652344 80.5 308.226562 77.816406 306.015625 73.71875 C 305 74.28125 303.839844 74.628906 302.613281 74.6875 C 300.121094 74.804688 297.855469 73.742188 296.339844 72.003906 C 295.550781 74.734375 293.085938 76.785156 290.09375 76.929688 C 286.320312 77.109375 283.125 74.199219 282.945312 70.441406 C 282.765625 66.683594 285.679688 63.480469 289.441406 63.300781 C 291.464844 63.203125 293.3125 63.984375 294.632812 65.320312 C 295.34375 61.953125 298.253906 59.355469 301.859375 59.183594 C 303.679688 59.097656 305.398438 59.652344 306.777344 60.636719 C 308.914062 57.59375 312.394531 55.527344 316.40625 55.335938 C 316.75 55.316406 317.097656 55.3125 317.433594 55.328125 C 317.074219 46.425781 323.980469 38.871094 332.921875 38.445312 Z M 604.101562 14.28125 C 605.019531 14.238281 605.789062 14.941406 605.835938 15.855469 C 605.878906 16.78125 605.175781 17.550781 604.261719 17.59375 C 603.335938 17.640625 602.5625 16.9375 602.519531 16.011719 C 602.472656 15.109375 603.175781 14.328125 604.101562 14.28125 Z M 608.378906 7.785156 C 609.886719 7.710938 611.164062 8.867188 611.234375 10.375 C 611.308594 11.878906 610.148438 13.15625 608.640625 13.226562 C 607.132812 13.300781 605.859375 12.140625 605.785156 10.636719 C 605.714844 9.128906 606.871094 7.855469 608.378906 7.785156 Z M 621.742188 13.070312 C 622.457031 13.035156 623.0625 13.585938 623.097656 14.300781 C 623.132812 15.015625 622.578125 15.621094 621.863281 15.65625 C 621.148438 15.691406 620.542969 15.140625 620.507812 14.425781 C 620.472656 13.710938 621.027344 13.105469 621.742188 13.070312 Z M 626.351562 15.621094 C 627.960938 15.542969 629.328125 16.785156 629.40625 18.394531 C 629.480469 20 628.238281 21.367188 626.628906 21.445312 C 625.023438 21.519531 623.652344 20.277344 623.574219 18.671875 C 623.511719 17.066406 624.753906 15.699219 626.351562 15.621094 Z M 534.632812 41.992188 C 535.371094 41.957031 536.003906 42.519531 536.039062 43.265625 C 536.074219 44.011719 535.5 44.632812 534.761719 44.667969 C 534.023438 44.703125 533.394531 44.128906 533.359375 43.394531 C 533.332031 42.65625 533.898438 42.027344 534.632812 41.992188 Z M 526.109375 42.355469 C 527.574219 42.285156 528.824219 43.421875 528.894531 44.882812 C 528.964844 46.34375 527.828125 47.59375 526.363281 47.664062 C 524.902344 47.734375 523.648438 46.597656 523.578125 45.136719 C 523.511719 43.675781 524.648438 42.425781 526.109375 42.355469 Z M 532.585938 36.355469 C 533.464844 36.3125 534.214844 36.992188 534.257812 37.863281 C 534.300781 38.742188 533.617188 39.492188 532.734375 39.535156 C 531.855469 39.574219 531.105469 38.894531 531.0625 38.015625 C 531.019531 37.144531 531.703125 36.398438 532.585938 36.355469 Z M 529.167969 40.027344 C 529.980469 39.988281 530.683594 40.625 530.722656 41.441406 C 530.761719 42.253906 530.125 42.957031 529.308594 42.996094 C 528.492188 43.035156 527.804688 42.398438 527.765625 41.582031 C 527.726562 40.769531 528.351562 40.066406 529.167969 40.027344 Z M 319.332031 84.183594 C 320.660156 84.121094 321.785156 85.140625 321.847656 86.464844 C 321.910156 87.792969 320.890625 88.917969 319.5625 88.980469 C 318.242188 89.042969 317.109375 88.023438 317.046875 86.695312 C 316.980469 85.378906 318.011719 84.246094 319.332031 84.183594 Z M 439.839844 89.246094 C 440.355469 89.222656 440.789062 89.617188 440.8125 90.128906 C 440.835938 90.640625 440.445312 91.074219 439.929688 91.097656 C 439.417969 91.125 438.984375 90.730469 438.960938 90.21875 C 438.945312 89.703125 439.328125 89.273438 439.839844 89.246094 Z M 420.371094 88.882812 C 422.269531 88.792969 423.863281 90.246094 423.953125 92.132812 C 424.042969 94.027344 422.585938 95.617188 420.699219 95.710938 C 418.808594 95.800781 417.207031 94.34375 417.117188 92.460938 C 417.015625 90.574219 418.484375 88.972656 420.371094 88.882812 Z M 404.398438 80.480469 C 405.113281 80.445312 405.722656 81 405.757812 81.710938 C 405.789062 82.425781 405.238281 83.035156 404.523438 83.066406 C 403.808594 83.101562 403.199219 82.550781 403.164062 81.835938 C 403.132812 81.121094 403.683594 80.515625 404.398438 80.480469 Z M 418.347656 78.617188 C 420.109375 78.53125 421.609375 79.890625 421.691406 81.640625 C 421.777344 83.40625 420.414062 84.902344 418.652344 84.984375 C 417.601562 85.035156 416.636719 84.566406 416.019531 83.8125 C 415.695312 84.535156 414.996094 85.058594 414.144531 85.101562 C 412.949219 85.15625 411.921875 84.222656 411.863281 83.03125 C 411.808594 81.835938 412.742188 80.820312 413.9375 80.761719 C 414.472656 80.734375 414.972656 80.902344 415.359375 81.207031 C 415.636719 79.785156 416.851562 78.6875 418.347656 78.617188 Z M 427.765625 80.847656 C 430.46875 80.71875 432.761719 82.800781 432.890625 85.5 C 433.019531 88.210938 430.9375 90.5 428.234375 90.628906 C 425.53125 90.761719 423.226562 88.679688 423.097656 85.96875 C 422.96875 83.269531 425.0625 80.976562 427.765625 80.847656 Z M 156.765625 102.417969 C 158.09375 102.355469 159.21875 103.375 159.28125 104.703125 C 159.34375 106.03125 158.324219 107.152344 156.996094 107.214844 C 155.664062 107.277344 154.542969 106.257812 154.476562 104.933594 C 154.414062 103.617188 155.4375 102.484375 156.765625 102.417969 Z M 264.214844 79.699219 C 265.921875 79.617188 267.386719 80.933594 267.46875 82.640625 C 267.550781 84.347656 266.230469 85.808594 264.511719 85.890625 C 262.804688 85.972656 261.351562 84.65625 261.269531 82.9375 C 261.1875 81.242188 262.519531 79.78125 264.214844 79.699219 Z M 346.6875 68.542969 C 349.335938 68.414062 351.59375 70.453125 351.71875 73.109375 C 351.847656 75.75 349.792969 78.007812 347.148438 78.132812 C 344.5 78.261719 342.242188 76.210938 342.117188 73.566406 C 341.988281 70.914062 344.042969 68.667969 346.6875 68.542969 Z M 309.699219 80.296875 C 311.84375 80.191406 313.667969 81.851562 313.769531 83.992188 C 313.871094 86.132812 312.214844 87.945312 310.070312 88.046875 C 307.925781 88.152344 306.109375 86.492188 306.007812 84.363281 C 305.90625 82.222656 307.566406 80.398438 309.699219 80.296875 Z M 256.785156 83.9375 C 258.972656 83.832031 260.84375 85.519531 260.949219 87.714844 C 261.054688 89.902344 259.351562 91.773438 257.164062 91.878906 C 254.976562 91.980469 253.105469 90.292969 253 88.097656 C 252.894531 85.910156 254.59375 84.039062 256.785156 83.9375 Z M 218.011719 83.019531 C 220.925781 82.878906 223.394531 85.121094 223.535156 88.03125 C 223.675781 90.941406 221.429688 93.410156 218.515625 93.546875 C 215.601562 93.6875 213.132812 91.449219 212.992188 88.535156 C 212.855469 85.636719 215.097656 83.160156 218.011719 83.019531 Z M 184.660156 93.785156 C 185.550781 93.742188 186.3125 94.429688 186.355469 95.3125 C 186.398438 96.214844 185.707031 96.964844 184.8125 97.007812 C 183.917969 97.050781 183.160156 96.371094 183.117188 95.46875 C 183.074219 94.585938 183.765625 93.824219 184.660156 93.785156 Z M 205.425781 76.601562 C 207.492188 76.5 209.257812 78.09375 209.359375 80.15625 C 209.457031 82.222656 207.863281 83.972656 205.785156 84.074219 C 203.71875 84.171875 201.964844 82.578125 201.863281 80.515625 C 201.765625 78.441406 203.359375 76.699219 205.425781 76.601562 Z M 549.898438 38.007812 C 550.960938 37.957031 551.863281 38.773438 551.914062 39.835938 C 551.964844 40.882812 551.144531 41.792969 550.085938 41.84375 C 549.023438 41.894531 548.121094 41.078125 548.070312 40.019531 C 548.019531 38.957031 548.839844 38.058594 549.898438 38.007812 Z M 561.175781 36.886719 C 560.804688 37.789062 559.929688 38.457031 558.890625 38.503906 C 558.765625 38.511719 558.644531 38.503906 558.519531 38.488281 C 558.566406 39.683594 557.640625 40.6875 556.445312 40.746094 C 555.25 40.804688 554.230469 39.878906 554.175781 38.6875 C 554.164062 38.441406 554.1875 38.214844 554.253906 37.988281 L 554.242188 37.988281 C 552.199219 38.085938 550.46875 36.515625 550.371094 34.472656 C 550.285156 32.722656 551.433594 31.203125 553.054688 30.746094 L 553.054688 30.734375 C 552.980469 29.152344 554.203125 27.804688 555.777344 27.730469 C 557.015625 27.671875 558.105469 28.402344 558.558594 29.476562 C 559.253906 28.851562 560.164062 28.449219 561.183594 28.402344 C 561.628906 28.378906 562.066406 28.425781 562.488281 28.539062 C 562.667969 26.226562 564.546875 24.359375 566.914062 24.246094 C 569.496094 24.125 571.695312 26.109375 571.816406 28.683594 C 571.941406 31.261719 569.953125 33.449219 567.363281 33.570312 C 566.746094 33.601562 566.136719 33.507812 565.59375 33.320312 C 565.28125 35.269531 563.644531 36.800781 561.589844 36.898438 C 561.453125 36.894531 561.308594 36.890625 561.175781 36.886719 Z M 617.980469 4.640625 C 619.957031 4.546875 621.628906 6.074219 621.722656 8.039062 C 621.816406 10.011719 620.296875 11.683594 618.320312 11.78125 C 616.421875 11.871094 614.8125 10.472656 614.597656 8.605469 C 614.324219 8.75 614.027344 8.832031 613.703125 8.847656 C 612.542969 8.902344 611.558594 8.011719 611.503906 6.851562 C 611.449219 5.691406 612.339844 4.699219 613.503906 4.644531 C 614.363281 4.601562 615.136719 5.089844 615.496094 5.8125 C 616.113281 5.144531 616.984375 4.6875 617.980469 4.640625 Z M 592.171875 -8.625 C 593.386719 -8.683594 594.445312 -7.871094 594.746094 -6.746094 C 595 -6.792969 595.269531 -6.828125 595.546875 -6.839844 C 598.652344 -6.988281 601.308594 -4.589844 601.457031 -1.476562 C 601.476562 -1.066406 601.449219 -0.671875 601.378906 -0.277344 C 601.589844 -0.0625 601.75 0.1875 601.875 0.460938 C 602.203125 0.320312 602.558594 0.238281 602.9375 0.21875 C 604.613281 0.136719 606.050781 1.433594 606.132812 3.117188 C 606.210938 4.800781 604.914062 6.238281 603.230469 6.320312 C 601.664062 6.394531 600.3125 5.273438 600.0625 3.765625 C 599.960938 3.78125 599.863281 3.796875 599.761719 3.800781 C 599.472656 3.816406 599.1875 3.773438 598.917969 3.6875 L 598.921875 3.796875 C 599.015625 5.785156 597.542969 7.484375 595.582031 7.691406 C 595.785156 8.175781 595.910156 8.703125 595.9375 9.261719 C 596.046875 11.539062 594.4375 13.503906 592.253906 13.921875 C 591.304688 15.097656 589.875 15.859375 588.242188 15.9375 C 585.195312 16.082031 582.609375 13.734375 582.460938 10.691406 C 582.316406 7.644531 584.667969 5.0625 587.714844 4.914062 C 588.453125 4.878906 589.164062 4.992188 589.8125 5.21875 C 590.242188 5.050781 590.707031 4.953125 591.1875 4.929688 C 591.308594 4.921875 591.421875 4.929688 591.542969 4.921875 C 591.476562 4.667969 591.429688 4.402344 591.417969 4.136719 C 591.390625 3.597656 591.476562 3.09375 591.648438 2.636719 C 590.761719 1.695312 590.199219 0.449219 590.132812 -0.945312 C 590.078125 -2.039062 590.34375 -3.070312 590.847656 -3.964844 C 590.203125 -4.394531 589.753906 -5.121094 589.714844 -5.957031 C 589.679688 -7.363281 590.765625 -8.554688 592.171875 -8.625 Z M 644.574219 18.707031 C 645.414062 18.667969 646.136719 19.324219 646.179688 20.160156 C 646.21875 20.996094 645.558594 21.722656 644.722656 21.761719 C 643.882812 21.804688 643.160156 21.144531 643.117188 20.308594 C 643.078125 19.472656 643.738281 18.746094 644.574219 18.707031 Z M 632.691406 12.890625 C 633.804688 12.839844 634.742188 13.699219 634.796875 14.816406 C 634.800781 14.925781 634.796875 15.050781 634.789062 15.148438 C 635.386719 14.316406 636.355469 13.734375 637.472656 13.679688 C 639.417969 13.585938 641.066406 15.085938 641.160156 17.023438 C 641.253906 18.964844 639.753906 20.613281 637.808594 20.707031 C 635.867188 20.800781 634.214844 19.304688 634.125 17.363281 C 634.105469 16.992188 634.144531 16.632812 634.242188 16.292969 C 633.898438 16.65625 633.417969 16.894531 632.882812 16.917969 C 631.777344 16.972656 630.828125 16.109375 630.777344 15.007812 C 630.722656 13.890625 631.585938 12.945312 632.691406 12.890625 Z M 481.46875 57.25 C 481.960938 57.226562 482.414062 57.359375 482.808594 57.585938 C 482.777344 56.703125 483.46875 55.945312 484.347656 55.902344 C 485.242188 55.859375 486.003906 56.539062 486.046875 57.429688 C 486.089844 58.324219 485.398438 59.09375 484.503906 59.136719 C 484.269531 59.148438 484.054688 59.113281 483.859375 59.035156 C 483.902344 59.167969 483.90625 59.3125 483.914062 59.46875 C 483.976562 60.75 482.988281 61.847656 481.691406 61.910156 C 480.398438 61.972656 479.308594 60.972656 479.246094 59.691406 C 479.1875 58.410156 480.1875 57.308594 481.46875 57.25 Z M 491.53125 56.5 C 492.824219 56.4375 493.914062 57.425781 493.976562 58.71875 C 494.039062 60.011719 493.039062 61.097656 491.753906 61.160156 C 490.46875 61.222656 489.367188 60.222656 489.308594 58.941406 C 489.246094 57.660156 490.246094 56.558594 491.53125 56.5 Z M 491.34375 49.09375 C 492.695312 49.03125 493.839844 50.070312 493.90625 51.433594 C 493.972656 52.78125 492.929688 53.9375 491.578125 54.003906 C 490.214844 54.066406 489.070312 53.027344 489.003906 51.667969 C 488.949219 50.304688 489.992188 49.160156 491.34375 49.09375 Z M 513.984375 35.289062 C 514.878906 35.246094 515.640625 35.9375 515.683594 36.828125 C 515.726562 37.71875 515.035156 38.480469 514.140625 38.523438 C 513.246094 38.566406 512.488281 37.875 512.445312 36.984375 C 512.402344 36.089844 513.09375 35.332031 513.984375 35.289062 Z M 509.210938 42.828125 C 509.621094 42.808594 509.960938 43.128906 509.980469 43.53125 C 510 43.941406 509.695312 44.28125 509.28125 44.300781 C 508.878906 44.320312 508.527344 44.011719 508.507812 43.601562 C 508.476562 43.199219 508.808594 42.847656 509.210938 42.828125 Z M 515.265625 40.269531 C 515.789062 40.242188 516.265625 40.378906 516.683594 40.625 C 516.828125 39.019531 518.132812 37.726562 519.796875 37.648438 C 521.617188 37.5625 523.148438 38.953125 523.238281 40.769531 C 523.324219 42.578125 521.929688 44.109375 520.109375 44.195312 C 519.25 44.238281 518.441406 43.941406 517.835938 43.421875 C 517.558594 44.464844 516.644531 45.246094 515.519531 45.300781 C 514.132812 45.367188 512.941406 44.292969 512.875 42.910156 C 512.808594 41.515625 513.882812 40.335938 515.265625 40.269531 Z M 585.683594 19.3125 C 586.253906 19.285156 586.722656 19.722656 586.75 20.277344 C 586.777344 20.847656 586.351562 21.316406 585.78125 21.34375 C 585.222656 21.367188 584.746094 20.945312 584.71875 20.375 C 584.691406 19.816406 585.125 19.339844 585.683594 19.3125 Z M 569.285156 19.316406 C 570.257812 19.269531 571.078125 20.011719 571.125 20.980469 C 571.171875 21.953125 570.425781 22.769531 569.453125 22.816406 C 568.484375 22.863281 567.664062 22.121094 567.617188 21.148438 C 567.570312 20.179688 568.316406 19.359375 569.285156 19.316406 Z M 568.5 35.820312 C 569.59375 35.769531 570.527344 36.605469 570.582031 37.710938 C 570.636719 38.816406 569.792969 39.738281 568.6875 39.792969 C 567.59375 39.84375 566.660156 39.003906 566.605469 37.902344 C 566.554688 36.796875 567.40625 35.871094 568.5 35.820312 Z M 580.84375 19.632812 C 582.117188 19.574219 583.203125 20.558594 583.265625 21.832031 C 583.324219 23.101562 582.347656 24.191406 581.0625 24.25 C 579.789062 24.3125 578.703125 23.335938 578.640625 22.054688 C 578.570312 20.78125 579.558594 19.695312 580.84375 19.632812 Z M 575.105469 21.808594 C 576.375 21.746094 577.464844 22.734375 577.527344 24.007812 C 577.585938 25.277344 576.597656 26.367188 575.324219 26.425781 C 574.050781 26.488281 572.964844 25.511719 572.902344 24.226562 C 572.839844 22.957031 573.832031 21.871094 575.105469 21.808594 Z M 539.054688 35.195312 C 539.644531 35.167969 540.148438 35.625 540.175781 36.214844 C 540.207031 36.804688 539.746094 37.296875 539.15625 37.324219 C 538.5625 37.355469 538.074219 36.90625 538.042969 36.316406 C 538.015625 35.726562 538.460938 35.222656 539.054688 35.195312 Z M 545.152344 33.046875 C 546.558594 32.980469 547.753906 34.0625 547.820312 35.46875 C 547.886719 36.875 546.800781 38.066406 545.394531 38.132812 C 543.988281 38.199219 542.796875 37.117188 542.726562 35.710938 C 542.671875 34.304688 543.746094 33.113281 545.152344 33.046875 Z M 558.632812 25.191406 C 559.492188 25.148438 560.242188 25.816406 560.28125 26.6875 C 560.324219 27.558594 559.644531 28.296875 558.785156 28.335938 C 557.914062 28.378906 557.175781 27.710938 557.132812 26.839844 C 557.09375 25.96875 557.761719 25.234375 558.632812 25.191406 Z M 600.921875 7.011719 C 602.164062 6.953125 603.214844 7.90625 603.273438 9.144531 C 603.332031 10.382812 602.375 11.425781 601.136719 11.484375 C 599.898438 11.542969 598.855469 10.585938 598.796875 9.359375 C 598.738281 8.132812 599.683594 7.070312 600.921875 7.011719 Z M 608.003906 3.160156 C 608.472656 3.140625 608.871094 3.5 608.890625 3.980469 C 608.914062 4.449219 608.554688 4.847656 608.085938 4.867188 C 607.617188 4.890625 607.207031 4.53125 607.183594 4.0625 C 607.171875 3.582031 607.535156 3.183594 608.003906 3.160156 Z M 587.359375 -1.082031 C 588.710938 -1.148438 589.859375 -0.105469 589.925781 1.253906 C 589.988281 2.617188 588.949219 3.761719 587.597656 3.824219 C 586.234375 3.890625 585.085938 2.851562 585.023438 1.488281 C 584.957031 0.128906 586 -1.015625 587.359375 -1.082031 Z M 496.878906 94.78125 C 497.367188 94.753906 497.777344 95.128906 497.800781 95.617188 C 497.824219 96.097656 497.453125 96.519531 496.960938 96.542969 C 496.480469 96.566406 496.058594 96.183594 496.039062 95.703125 C 496.015625 95.210938 496.398438 94.800781 496.878906 94.78125 Z M 517.828125 99.890625 C 519.359375 99.820312 520.667969 100.996094 520.742188 102.535156 C 520.816406 104.074219 519.636719 105.363281 518.09375 105.433594 C 516.5625 105.507812 515.253906 104.332031 515.179688 102.800781 C 515.109375 101.273438 516.289062 99.964844 517.828125 99.890625 Z M 478.34375 88.957031 C 479.078125 88.921875 479.710938 89.496094 479.746094 90.234375 C 479.78125 90.96875 479.21875 91.601562 478.472656 91.636719 C 477.722656 91.671875 477.101562 91.109375 477.066406 90.363281 C 477.03125 89.625 477.605469 88.992188 478.34375 88.957031 Z M 477.4375 101.824219 C 478.417969 101.777344 479.25 102.53125 479.296875 103.515625 C 479.34375 104.496094 478.589844 105.324219 477.605469 105.371094 C 476.625 105.417969 475.792969 104.664062 475.746094 103.683594 C 475.699219 102.714844 476.453125 101.871094 477.4375 101.824219 Z M 463.515625 89.949219 C 465.257812 89.863281 466.730469 91.203125 466.8125 92.929688 C 466.898438 94.671875 465.558594 96.144531 463.816406 96.226562 C 462.085938 96.3125 460.609375 94.972656 460.527344 93.234375 C 460.445312 91.503906 461.785156 90.03125 463.515625 89.949219 Z M 473.050781 91.617188 C 475.710938 91.488281 477.957031 93.539062 478.085938 96.191406 C 478.210938 98.835938 476.171875 101.09375 473.511719 101.21875 C 470.855469 101.347656 468.609375 99.296875 468.480469 96.652344 C 468.355469 94 470.394531 91.742188 473.050781 91.617188 Z M 502.984375 96.566406 C 504.546875 96.492188 505.859375 97.703125 505.933594 99.242188 C 506.007812 100.804688 504.804688 102.125 503.253906 102.199219 C 501.703125 102.273438 500.378906 101.0625 500.304688 99.511719 C 500.230469 97.972656 501.421875 96.640625 502.984375 96.566406 Z M 492.105469 96.820312 C 494.292969 96.714844 496.167969 98.402344 496.273438 100.597656 C 496.375 102.796875 494.6875 104.65625 492.484375 104.761719 C 490.664062 104.847656 489.066406 103.695312 488.515625 102.042969 C 487.492188 103.121094 486.0625 103.816406 484.453125 103.894531 C 481.148438 104.050781 478.339844 101.503906 478.179688 98.199219 C 478.023438 94.898438 480.574219 92.09375 483.878906 91.9375 C 487.128906 91.78125 489.890625 94.230469 490.144531 97.4375 C 490.71875 97.074219 491.378906 96.855469 492.105469 96.820312 Z M 223.542969 74.414062 C 225.488281 74.320312 227.136719 75.820312 227.230469 77.75 C 227.324219 79.6875 225.824219 81.335938 223.878906 81.429688 C 221.9375 81.523438 220.289062 80.035156 220.195312 78.085938 C 220.101562 76.15625 221.601562 74.507812 223.542969 74.414062 Z M 236.136719 72.324219 C 240.066406 72.136719 243.402344 75.164062 243.589844 79.089844 C 243.777344 83.015625 240.738281 86.347656 236.816406 86.535156 C 232.886719 86.722656 229.550781 83.695312 229.363281 79.769531 C 229.175781 75.855469 232.207031 72.511719 236.136719 72.324219 Z M 343.308594 33.6875 C 343.886719 33.660156 344.390625 34.117188 344.417969 34.695312 C 344.445312 35.289062 343.988281 35.789062 343.410156 35.816406 C 342.816406 35.847656 342.3125 35.390625 342.285156 34.796875 C 342.257812 34.21875 342.714844 33.714844 343.308594 33.6875 Z M 351.945312 37.164062 C 353.988281 37.066406 355.722656 38.636719 355.820312 40.679688 C 355.917969 42.722656 354.34375 44.449219 352.300781 44.550781 C 350.257812 44.648438 348.523438 43.074219 348.425781 41.035156 C 348.328125 38.992188 349.902344 37.261719 351.945312 37.164062 Z M 318.082031 28.421875 C 319.613281 28.347656 320.910156 29.527344 320.984375 31.054688 C 321.058594 32.582031 319.878906 33.882812 318.347656 33.953125 C 316.816406 34.027344 315.519531 32.847656 315.445312 31.320312 C 315.363281 29.804688 316.542969 28.496094 318.082031 28.421875 Z M 333.820312 72.835938 C 335.40625 72.757812 336.742188 73.980469 336.816406 75.554688 C 336.890625 77.136719 335.667969 78.472656 334.09375 78.546875 C 332.519531 78.621094 331.171875 77.402344 331.097656 75.828125 C 331.023438 74.253906 332.246094 72.910156 333.820312 72.835938 Z M 357.722656 66.871094 C 359.351562 66.792969 360.746094 68.058594 360.824219 69.6875 C 360.902344 71.316406 359.636719 72.707031 358.003906 72.785156 C 356.375 72.863281 354.984375 71.597656 354.90625 69.96875 C 354.828125 68.339844 356.09375 66.949219 357.722656 66.871094 Z M 374.035156 66.003906 C 375.328125 65.941406 376.441406 66.9375 376.503906 68.242188 C 376.566406 69.535156 375.566406 70.648438 374.257812 70.710938 C 372.953125 70.773438 371.851562 69.761719 371.789062 68.46875 C 371.726562 67.164062 372.726562 66.066406 374.035156 66.003906 Z M 399.367188 70.535156 C 401.121094 70.453125 402.617188 71.8125 402.703125 73.5625 C 402.785156 75.324219 401.425781 76.820312 399.671875 76.90625 C 397.910156 76.988281 396.410156 75.628906 396.324219 73.867188 C 396.242188 72.105469 397.601562 70.621094 399.367188 70.535156 Z M 384.6875 62.898438 C 387.601562 62.757812 390.070312 65 390.210938 67.910156 C 390.347656 70.824219 388.105469 73.289062 385.191406 73.429688 C 382.277344 73.566406 379.808594 71.328125 379.667969 68.414062 C 379.527344 65.503906 381.773438 63.039062 384.6875 62.898438 Z M 298.152344 76.667969 C 299.46875 76.605469 300.605469 77.621094 300.667969 78.949219 C 300.730469 80.277344 299.710938 81.398438 298.382812 81.464844 C 297.054688 81.527344 295.929688 80.507812 295.867188 79.179688 C 295.804688 77.863281 296.824219 76.730469 298.152344 76.667969 Z M 281.144531 76.554688 C 281.726562 76.527344 282.226562 76.972656 282.257812 77.5625 C 282.285156 78.152344 281.828125 78.644531 281.246094 78.671875 C 280.65625 78.699219 280.152344 78.253906 280.125 77.664062 C 280.105469 77.082031 280.5625 76.582031 281.144531 76.554688 Z M 269.972656 70.703125 C 272.429688 70.585938 274.503906 72.476562 274.621094 74.921875 C 274.738281 77.363281 272.84375 79.445312 270.398438 79.5625 C 267.953125 79.679688 265.871094 77.789062 265.753906 75.34375 C 265.636719 72.902344 267.527344 70.820312 269.972656 70.703125 Z M 304.902344 43.484375 C 308.117188 43.332031 310.847656 45.816406 311 49.03125 C 311.152344 52.242188 308.675781 54.964844 305.460938 55.121094 C 302.242188 55.273438 299.507812 52.800781 299.351562 49.589844 C 299.199219 46.375 301.6875 43.640625 304.902344 43.484375 Z M 304.902344 43.484375 " fill-opacity="1" fill-rule="evenodd"/></g></g></g></g><g clip-path="url(#c834afecf2)"><g clip-path="url(#6816de1f98)"><path fill="#006998" d="M -17.742188 81.277344 L 198.15625 81.277344 L 198.15625 126.101562 L -17.742188 126.101562 Z M -17.742188 81.277344 " fill-opacity="1" fill-rule="nonzero"/></g></g><g clip-path="url(#1e4738bc59)"><g clip-path="url(#d606b7bc15)"><path fill="#ffffff" d="M -5.5 76.679688 L 201.765625 76.679688 L 201.765625 82.71875 L -5.5 82.71875 Z M -5.5 76.679688 " fill-opacity="1" fill-rule="nonzero"/></g></g></svg>