<svg xmlns="http://www.w3.org/2000/svg" xmlns:xlink="http://www.w3.org/1999/xlink" width="881" zoomAndPan="magnify" viewBox="0 0 660.75 119.999999" height="160" preserveAspectRatio="xMidYMid meet" version="1.0"><defs><clipPath id="82427b3f82"><path d="M 0 0.0234375 L 660.5 0.0234375 L 660.5 119.976562 L 0 119.976562 Z M 0 0.0234375 " clip-rule="nonzero"/></clipPath><clipPath id="97c0cf6f36"><path d="M 98 4 L 660.5 4 L 660.5 119.976562 L 98 119.976562 Z M 98 4 " clip-rule="nonzero"/></clipPath><clipPath id="8c03199784"><path d="M 371 17 L 660.5 17 L 660.5 119.976562 L 371 119.976562 Z M 371 17 " clip-rule="nonzero"/></clipPath><clipPath id="2aacdc2e19"><path d="M 0 31 L 493 31 L 493 119.976562 L 0 119.976562 Z M 0 31 " clip-rule="nonzero"/></clipPath><clipPath id="5729f88aa7"><path d="M 0 40 L 413 40 L 413 119.976562 L 0 119.976562 Z M 0 40 " clip-rule="nonzero"/></clipPath><clipPath id="75ad0689ec"><path d="M 51 0.0234375 L 632 0.0234375 L 632 113 L 51 113 Z M 51 0.0234375 " clip-rule="nonzero"/></clipPath><clipPath id="97eeac653c"><path d="M 0 0.0234375 L 660.5 0.0234375 L 660.5 119.976562 L 0 119.976562 Z M 0 0.0234375 " clip-rule="nonzero"/></clipPath><clipPath id="ddc5dc8de8"><path d="M 659.609375 277.339844 L -190.882812 172.527344 L -135.402344 -277.648438 L 715.089844 -172.832031 Z M 659.609375 277.339844 " clip-rule="nonzero"/></clipPath><clipPath id="655ef09c4d"><path d="M -191.078125 172.5 L 659.414062 277.316406 L 714.890625 -172.855469 L -135.597656 -277.671875 Z M -191.078125 172.5 " clip-rule="nonzero"/></clipPath></defs><g clip-path="url(#82427b3f82)"><path fill="#ffffff" d="M 0 0.0234375 L 660.5 0.0234375 L 660.5 119.976562 L 0 119.976562 Z M 0 0.0234375 " fill-opacity="1" fill-rule="nonzero"/><path fill="#ffffff" d="M 0 0.0234375 L 660.5 0.0234375 L 660.5 119.976562 L 0 119.976562 Z M 0 0.0234375 " fill-opacity="1" fill-rule="nonzero"/></g><g clip-path="url(#97c0cf6f36)"><path fill="#006998" d="M 661.527344 18.847656 C 647.148438 16.96875 631.316406 14.710938 614.101562 11.992188 C 521.003906 -2.710938 533.246094 4.640625 485.480469 25.46875 C 437.703125 46.296875 445.054688 57.324219 398.503906 57.324219 C 351.949219 57.324219 296.421875 70.882812 269.0625 81.261719 C 252.574219 87.511719 165.027344 112.253906 98.074219 130.925781 L 661.535156 130.925781 L 661.535156 18.847656 Z M 661.527344 18.847656 " fill-opacity="1" fill-rule="evenodd"/></g><g clip-path="url(#8c03199784)"><path fill="#084582" d="M 564.28125 45.308594 C 564.28125 45.308594 585.25 43.625 599.648438 48.988281 C 614.035156 54.355469 637.613281 58.636719 649.5625 55.574219 C 653.75 54.503906 657.929688 51.679688 661.515625 48.195312 L 661.515625 24.148438 C 656.882812 24.089844 650.550781 24.433594 642.210938 24.027344 C 623.226562 23.101562 610.667969 16.832031 598.878906 18.050781 C 587.089844 19.273438 607.453125 26.476562 601.183594 32.148438 C 594.902344 37.808594 566.5 36.429688 559 39.574219 C 551.492188 42.710938 555.855469 46.5 558.34375 46.195312 C 560.839844 45.882812 564.28125 45.308594 564.28125 45.308594 Z M 661.527344 56.480469 L 661.527344 130.9375 L 420.714844 130.9375 L 371.726562 104.511719 C 371.726562 104.511719 426.234375 100.832031 465.128906 109.414062 C 504.019531 117.988281 551.1875 105.429688 577.214844 96.855469 C 603.246094 88.28125 587.628906 77.558594 615.191406 72.039062 C 639.613281 67.144531 651.289062 68.996094 661.527344 56.480469 Z M 434.816406 96.695312 C 434.816406 96.695312 450.433594 92.101562 472.792969 92.101562 C 495.140625 92.101562 520.265625 94.855469 545.980469 89.648438 C 571.703125 84.441406 594.367188 72.5 592.535156 65.445312 C 590.695312 58.40625 589.46875 57.175781 556.085938 60.238281 C 522.707031 63.296875 498.210938 55.945312 483.203125 55.335938 C 468.207031 54.722656 444.3125 62.992188 438.792969 73.101562 C 433.28125 83.210938 402.507812 88.261719 402.960938 92.554688 C 403.414062 96.835938 408.554688 98.980469 415.140625 99.519531 C 421.722656 100.0625 434.816406 96.695312 434.816406 96.695312 Z M 434.816406 96.695312 " fill-opacity="1" fill-rule="evenodd"/></g><g clip-path="url(#2aacdc2e19)"><path fill="#006998" d="M 492.46875 130.925781 C 455.214844 117.867188 399.558594 101.542969 334.796875 92.859375 C 215.96875 76.929688 191.472656 51.199219 146.144531 42.617188 C 100.820312 34.042969 100.820312 25.46875 71.414062 38.945312 C 42.011719 52.421875 17.867188 74.488281 -30.253906 74.488281 C -45.5 74.488281 -62.394531 76.332031 -78.371094 78.855469 L -78.371094 130.9375 L 492.46875 130.9375 Z M 492.46875 130.925781 " fill-opacity="1" fill-rule="evenodd"/></g><g clip-path="url(#5729f88aa7)"><path fill="#084582" d="M 271.585938 115.917969 C 271.585938 115.917969 301.453125 118.210938 318.289062 122.195312 C 335.136719 126.183594 410.15625 128.023438 412.152344 126.183594 C 414.140625 124.34375 371.414062 112.097656 349.832031 109.949219 C 328.238281 107.804688 297.457031 106.425781 283.375 109.183594 C 269.285156 111.9375 261.320312 108.730469 260.710938 111.632812 C 260.101562 114.546875 267.414062 115.277344 268.5625 115.621094 C 269.707031 115.953125 271.585938 115.917969 271.585938 115.917969 Z M 67.578125 40.765625 L 67.550781 40.785156 C 67.316406 40.90625 65.820312 41.664062 63.386719 42.875 C 37.359375 56.316406 13.417969 74.488281 -30.253906 74.488281 C -45.5 74.488281 -62.394531 76.332031 -78.371094 78.855469 L -78.371094 130.9375 L 306.4375 130.9375 C 293.351562 126.792969 279.011719 122.898438 265.890625 120.746094 C 228.535156 114.621094 190.558594 115.230469 172.371094 110.050781 C 154.179688 104.871094 126.855469 102.976562 93.171875 108.488281 C 59.484375 114 -12.175781 113.382812 -17.6875 99.914062 C -23.199219 86.441406 22.121094 81.84375 40.1875 72.039062 C 58.21875 62.242188 67.558594 40.824219 67.578125 40.765625 Z M 175.847656 102.050781 C 200.960938 106.953125 235.570312 107.878906 243.226562 107.269531 C 250.882812 106.65625 177.6875 97.160156 162.679688 89.195312 C 147.679688 81.222656 110.925781 83.367188 99.285156 90.878906 C 87.640625 98.390625 87.640625 100.535156 92.542969 101.144531 C 113.367188 103.734375 140.839844 95.21875 175.847656 102.050781 Z M -2.234375 93.015625 C -2.234375 93.015625 32.21875 87.503906 48.90625 79.078125 C 65.597656 70.652344 69.277344 65.285156 78.007812 63.761719 C 86.734375 62.226562 104.804688 74.175781 93.773438 83.675781 C 82.75 93.171875 70.046875 100.980469 51.976562 102.820312 C 33.910156 104.660156 5.652344 103.585938 -1.394531 101.292969 C -8.429688 98.992188 -8.320312 97.648438 -8.394531 95.78125 C -8.46875 93.914062 -5.621094 93.292969 -4.527344 93.257812 C -3.445312 93.210938 -2.234375 93.015625 -2.234375 93.015625 Z M -2.234375 93.015625 " fill-opacity="1" fill-rule="evenodd"/></g><g clip-path="url(#75ad0689ec)"><path fill="#cdd9d7" d="M 142.417969 24.25 C 150.816406 24.25 157.640625 30.925781 157.878906 39.269531 C 159.109375 38.769531 160.460938 38.492188 161.863281 38.492188 C 167.644531 38.492188 172.339844 43.136719 172.425781 48.898438 C 172.980469 48.703125 173.570312 48.601562 174.191406 48.601562 C 177.195312 48.601562 179.628906 51.035156 179.628906 54.039062 C 179.628906 57.046875 177.195312 59.476562 174.191406 59.476562 C 172.082031 59.476562 170.25 58.277344 169.355469 56.519531 C 167.441406 58.441406 164.785156 59.625 161.863281 59.625 C 157.074219 59.625 153.023438 56.433594 151.730469 52.058594 C 149.140625 54.019531 145.914062 55.175781 142.417969 55.175781 C 134.679688 55.175781 128.261719 49.488281 127.132812 42.0625 C 126.097656 42.894531 124.785156 43.394531 123.363281 43.394531 C 120.226562 43.394531 117.648438 41.007812 117.34375 37.945312 C 116.695312 38.296875 115.957031 38.492188 115.167969 38.492188 C 114.105469 38.492188 113.136719 38.132812 112.359375 37.53125 C 111.148438 38.703125 109.5 39.425781 107.679688 39.425781 C 103.953125 39.425781 100.9375 36.402344 100.9375 32.683594 C 100.9375 28.957031 103.960938 25.941406 107.679688 25.941406 C 110.277344 25.941406 112.535156 27.410156 113.664062 29.566406 C 114.132812 29.398438 114.652344 29.308594 115.179688 29.308594 C 117.269531 29.308594 119.035156 30.703125 119.589844 32.628906 C 120.625 31.796875 121.9375 31.296875 123.371094 31.296875 C 125.332031 31.296875 127.078125 32.238281 128.1875 33.683594 C 130.519531 28.140625 136.011719 24.25 142.417969 24.25 Z M 222.726562 74.554688 C 223.734375 74.554688 224.566406 75.367188 224.566406 76.394531 C 224.566406 77.402344 223.742188 78.234375 222.726562 78.234375 C 221.710938 78.234375 220.886719 77.414062 220.886719 76.394531 C 220.886719 75.367188 221.710938 74.554688 222.726562 74.554688 Z M 449.574219 98.75 C 450.878906 98.75 451.941406 99.8125 451.941406 101.128906 C 451.941406 102.429688 450.878906 103.496094 449.574219 103.496094 C 448.261719 103.496094 447.199219 102.429688 447.199219 101.128906 C 447.199219 99.804688 448.261719 98.75 449.574219 98.75 Z M 629.441406 13.980469 C 630.789062 13.980469 631.882812 15.074219 631.882812 16.421875 C 631.882812 17.773438 630.789062 18.875 629.441406 18.875 C 628.746094 18.875 628.117188 18.589844 627.675781 18.117188 C 626.859375 19.132812 625.613281 19.78125 624.207031 19.78125 C 621.757812 19.78125 619.769531 17.792969 619.769531 15.339844 C 619.769531 12.890625 621.757812 10.902344 624.207031 10.902344 C 626.257812 10.902344 627.980469 12.28125 628.488281 14.167969 C 628.785156 14.054688 629.109375 13.980469 629.441406 13.980469 Z M 573.535156 25.839844 C 574.339844 25.839844 574.988281 26.496094 574.988281 27.292969 C 574.988281 28.097656 574.339844 28.742188 573.535156 28.742188 C 572.730469 28.742188 572.082031 28.097656 572.082031 27.292969 C 572.074219 26.496094 572.730469 25.839844 573.535156 25.839844 Z M 535.011719 20.945312 C 536.363281 20.945312 537.464844 22.039062 537.464844 23.398438 C 537.464844 24.746094 536.363281 25.847656 535.011719 25.847656 C 533.664062 25.847656 532.5625 24.757812 532.5625 23.398438 C 532.574219 22.039062 533.664062 20.945312 535.011719 20.945312 Z M 408.546875 110.238281 C 409.214844 110.238281 409.769531 110.792969 409.769531 111.46875 C 409.769531 112.144531 409.214844 112.6875 408.546875 112.6875 C 407.863281 112.6875 407.316406 112.144531 407.316406 111.46875 C 407.316406 110.792969 407.863281 110.238281 408.546875 110.238281 Z M 199.101562 65.898438 C 200.683594 65.898438 201.976562 67.183594 201.976562 68.765625 C 201.976562 70.355469 200.691406 71.640625 199.101562 71.640625 C 197.511719 71.640625 196.234375 70.355469 196.234375 68.765625 C 196.234375 67.183594 197.519531 65.898438 199.101562 65.898438 Z M 218.09375 64.742188 C 219.046875 64.742188 219.8125 65.519531 219.8125 66.46875 C 219.8125 67.421875 219.046875 68.191406 218.09375 68.191406 C 217.140625 68.191406 216.363281 67.421875 216.363281 66.46875 C 216.363281 65.519531 217.140625 64.742188 218.09375 64.742188 Z M 160.785156 61.835938 C 162.429688 61.835938 163.769531 63.167969 163.769531 64.824219 C 163.769531 66.480469 162.429688 67.8125 160.785156 67.8125 C 159.136719 67.8125 157.796875 66.46875 157.796875 64.824219 C 157.796875 63.179688 159.136719 61.835938 160.785156 61.835938 Z M 121.085938 44.6875 C 121.992188 44.6875 122.734375 45.417969 122.734375 46.335938 C 122.734375 47.25 122.003906 47.980469 121.085938 47.980469 C 120.179688 47.980469 119.441406 47.242188 119.441406 46.335938 C 119.441406 45.429688 120.179688 44.6875 121.085938 44.6875 Z M 86.984375 34.191406 C 88.335938 34.191406 89.4375 35.292969 89.4375 36.640625 C 89.4375 37.992188 88.34375 39.09375 86.984375 39.09375 C 85.625 39.09375 84.535156 38 84.535156 36.640625 C 84.527344 35.292969 85.625 34.191406 86.984375 34.191406 Z M 66.957031 50.042969 C 68.039062 50.042969 68.917969 50.914062 68.917969 51.996094 C 68.917969 53.070312 68.039062 53.949219 66.957031 53.949219 C 65.886719 53.949219 65.007812 53.070312 65.007812 51.996094 C 65.007812 50.914062 65.875 50.042969 66.957031 50.042969 Z M 55.777344 42.460938 C 58.210938 42.460938 60.179688 44.429688 60.179688 46.863281 C 60.179688 49.296875 58.210938 51.273438 55.777344 51.273438 C 53.347656 51.273438 51.375 49.304688 51.375 46.863281 C 51.375 44.4375 53.347656 42.460938 55.777344 42.460938 Z M 609.246094 7.460938 C 610.875 7.460938 612.195312 8.785156 612.195312 10.410156 C 612.195312 12.039062 610.875 13.363281 609.246094 13.363281 C 607.617188 13.363281 606.304688 12.039062 606.304688 10.410156 C 606.304688 8.785156 607.617188 7.460938 609.246094 7.460938 Z M 480.894531 25.15625 C 481.226562 25.15625 481.53125 25.230469 481.800781 25.359375 C 482.066406 22.769531 484.25 20.753906 486.902344 20.753906 C 489.734375 20.753906 492.035156 23.046875 492.035156 25.886719 C 492.035156 28.726562 489.734375 31.019531 486.902344 31.019531 C 485.027344 31.019531 483.390625 30.019531 482.492188 28.523438 C 482.113281 28.992188 481.53125 29.296875 480.882812 29.296875 C 479.746094 29.296875 478.8125 28.375 478.8125 27.226562 C 478.820312 26.089844 479.746094 25.15625 480.894531 25.15625 Z M 464.203125 38.59375 C 465.117188 38.59375 465.847656 39.324219 465.847656 40.238281 C 465.847656 41.15625 465.117188 41.886719 464.203125 41.886719 C 463.296875 41.886719 462.558594 41.15625 462.558594 40.238281 C 462.558594 39.332031 463.289062 38.59375 464.203125 38.59375 Z M 469.25 36.261719 C 469.878906 36.261719 470.398438 36.78125 470.398438 37.417969 C 470.398438 38.046875 469.878906 38.566406 469.25 38.566406 C 468.613281 38.566406 468.105469 38.046875 468.105469 37.417969 C 468.105469 36.773438 468.613281 36.261719 469.25 36.261719 Z M 465.921875 33.082031 C 466.644531 33.082031 467.226562 33.664062 467.226562 34.386719 C 467.226562 35.105469 466.644531 35.691406 465.921875 35.691406 C 465.203125 35.691406 464.617188 35.105469 464.617188 34.386719 C 464.628906 33.664062 465.203125 33.082031 465.921875 33.082031 Z M 520.367188 28.03125 C 520.867188 28.03125 521.28125 28.449219 521.28125 28.945312 C 521.28125 29.457031 520.867188 29.871094 520.367188 29.871094 C 519.859375 29.871094 519.441406 29.457031 519.441406 28.945312 C 519.441406 28.449219 519.859375 28.03125 520.367188 28.03125 Z M 502.679688 24.8125 C 505.210938 24.8125 507.273438 26.867188 507.273438 29.410156 C 507.273438 31.945312 505.222656 34.007812 502.679688 34.007812 C 500.136719 34.007812 498.082031 31.953125 498.082031 29.410156 C 498.082031 26.875 500.136719 24.8125 502.679688 24.8125 Z M 472.820312 27.03125 C 474.890625 27.03125 476.566406 28.714844 476.566406 30.789062 C 476.566406 32.859375 474.882812 34.535156 472.820312 34.535156 C 470.75 34.535156 469.066406 32.851562 469.066406 30.789062 C 469.066406 28.714844 470.738281 27.03125 472.820312 27.03125 Z M 504.667969 10.03125 C 506.199219 10.03125 507.605469 10.605469 508.671875 11.550781 C 509.167969 10.300781 510.398438 9.421875 511.824219 9.421875 C 513.699219 9.421875 515.234375 10.949219 515.234375 12.835938 C 515.234375 14.722656 513.710938 16.246094 511.824219 16.246094 C 511.433594 16.246094 511.054688 16.183594 510.703125 16.0625 L 510.703125 16.089844 C 510.703125 19.429688 507.996094 22.140625 504.65625 22.140625 C 501.320312 22.140625 498.609375 19.429688 498.609375 16.089844 C 498.617188 12.742188 501.328125 10.03125 504.667969 10.03125 Z M 552.210938 23.203125 C 553.5625 23.203125 554.664062 24.292969 554.664062 25.65625 C 554.664062 27.003906 553.5625 28.105469 552.210938 28.105469 C 550.863281 28.105469 549.761719 27.003906 549.761719 25.65625 C 549.761719 24.304688 550.851562 23.203125 552.210938 23.203125 Z M 592.710938 -1.453125 C 594.441406 -1.453125 595.847656 -0.0507812 595.847656 1.679688 C 595.847656 3.410156 594.441406 4.824219 592.710938 4.824219 C 590.984375 4.824219 589.570312 3.410156 589.570312 1.679688 C 589.570312 -0.0507812 590.984375 -1.453125 592.710938 -1.453125 Z M 599.535156 3.300781 C 601.902344 3.300781 603.835938 5.222656 603.835938 7.601562 C 603.835938 9.96875 601.914062 11.890625 599.535156 11.890625 C 597.160156 11.890625 595.238281 9.96875 595.238281 7.601562 C 595.238281 5.214844 597.160156 3.300781 599.535156 3.300781 Z M 584.59375 2.679688 C 589.964844 2.679688 594.3125 7.035156 594.3125 12.398438 C 594.3125 17.773438 589.964844 22.128906 584.59375 22.128906 C 579.75 22.128906 575.734375 18.589844 574.996094 13.953125 C 574.671875 13.992188 574.347656 14.007812 574.035156 14.007812 C 570.6875 14.007812 567.847656 11.863281 566.804688 8.875 C 565.453125 9.8125 563.816406 10.355469 562.050781 10.355469 C 559.324219 10.355469 556.902344 9.050781 555.375 7.015625 C 554.429688 8.21875 552.980469 8.988281 551.335938 8.988281 C 550.558594 8.988281 549.828125 8.8125 549.171875 8.507812 C 549.625 9.414062 549.882812 10.429688 549.882812 11.511719 C 549.882812 15.195312 546.894531 18.191406 543.214844 18.191406 C 541.355469 18.191406 539.683594 17.433594 538.472656 16.210938 C 536.863281 17.449219 534.847656 18.179688 532.65625 18.179688 C 530.121094 18.179688 527.828125 17.199219 526.117188 15.601562 C 525.15625 16.949219 523.574219 17.839844 521.78125 17.839844 C 518.839844 17.839844 516.464844 15.460938 516.464844 12.519531 C 516.464844 9.578125 518.851562 7.203125 521.78125 7.203125 C 522.261719 7.203125 522.726562 7.265625 523.160156 7.386719 C 523.761719 2.679688 527.78125 -0.957031 532.65625 -0.957031 C 532.792969 -0.957031 532.925781 -0.945312 533.054688 -0.945312 C 533.042969 -1.085938 533.035156 -1.234375 533.035156 -1.378906 C 533.035156 -4.535156 535.597656 -7.085938 538.738281 -7.085938 C 541.882812 -7.085938 544.445312 -4.535156 544.445312 -1.378906 C 544.445312 -0.917969 544.390625 -0.464844 544.289062 -0.03125 C 544.34375 -0.0390625 544.398438 -0.0390625 544.445312 -0.0390625 C 545.460938 -0.0390625 546.378906 0.402344 547.007812 1.105469 C 547.921875 -0.316406 549.523438 -1.261719 551.332031 -1.261719 C 552.34375 -1.261719 553.292969 -0.964844 554.082031 -0.464844 C 555.132812 -3.851562 558.304688 -6.320312 562.042969 -6.320312 C 565.871094 -6.320312 569.105469 -3.738281 570.078125 -0.214844 C 571.234375 -0.910156 572.582031 -1.308594 574.023438 -1.308594 C 577.179688 -1.308594 579.898438 0.609375 581.0625 3.335938 C 582.164062 2.910156 583.355469 2.679688 584.59375 2.679688 Z M 571.046875 -10.796875 C 572.65625 -10.796875 573.960938 -9.492188 573.960938 -7.882812 C 573.960938 -6.28125 572.65625 -4.980469 571.046875 -4.980469 C 569.449219 -4.980469 568.136719 -6.28125 568.136719 -7.882812 C 568.136719 -9.492188 569.4375 -10.796875 571.046875 -10.796875 Z M 565.453125 11.261719 C 567.820312 11.261719 569.742188 13.1875 569.742188 15.554688 C 569.742188 17.921875 567.820312 19.835938 565.453125 19.835938 C 563.085938 19.835938 561.171875 17.914062 561.171875 15.554688 C 561.171875 13.175781 563.085938 11.261719 565.453125 11.261719 Z M 555.632812 10.457031 C 557.132812 10.457031 558.332031 11.660156 558.332031 13.148438 C 558.332031 14.648438 557.132812 15.851562 555.632812 15.851562 C 554.144531 15.851562 552.933594 14.648438 552.933594 13.148438 C 552.933594 11.660156 554.144531 10.457031 555.632812 10.457031 Z M 541.023438 3.84375 L 540.96875 3.871094 L 541.050781 4.03125 C 541.042969 3.972656 541.035156 3.910156 541.023438 3.84375 Z M 322.785156 90.648438 C 324.734375 90.648438 326.316406 92.230469 326.316406 94.179688 C 326.316406 96.132812 324.734375 97.714844 322.785156 97.714844 C 320.832031 97.714844 319.253906 96.132812 319.253906 94.179688 C 319.253906 92.230469 320.832031 90.648438 322.785156 90.648438 Z M 341.054688 88.261719 C 342.617188 88.261719 343.949219 89.296875 344.382812 90.710938 C 345.347656 90.324219 346.410156 90.101562 347.527344 90.101562 C 352.132812 90.101562 355.867188 93.839844 355.867188 98.445312 C 355.867188 103.058594 352.132812 106.796875 347.527344 106.796875 C 343.929688 106.796875 340.851562 104.511719 339.6875 101.3125 C 339.050781 101.644531 338.320312 101.828125 337.550781 101.828125 C 335.007812 101.828125 332.945312 99.765625 332.945312 97.222656 C 332.945312 94.679688 335.007812 92.617188 337.550781 92.617188 L 337.671875 92.617188 C 337.597656 92.339844 337.5625 92.054688 337.5625 91.75 C 337.570312 89.824219 339.132812 88.261719 341.054688 88.261719 Z M 385.042969 105.34375 C 386.261719 105.34375 387.261719 106.335938 387.261719 107.5625 C 387.261719 108.785156 386.273438 109.785156 385.042969 109.785156 C 384.191406 109.785156 383.460938 109.3125 383.082031 108.609375 C 382.582031 108.878906 382.007812 109.027344 381.398438 109.027344 C 379.390625 109.027344 377.765625 107.398438 377.765625 105.382812 C 377.765625 103.367188 379.390625 101.738281 381.398438 101.738281 C 383.40625 101.738281 385.023438 103.355469 385.042969 105.34375 Z M 390.480469 98.371094 C 391.414062 98.371094 392.171875 99.128906 392.171875 100.0625 C 392.171875 100.988281 391.414062 101.746094 390.480469 101.746094 C 389.554688 101.746094 388.796875 100.988281 388.796875 100.0625 C 388.796875 99.128906 389.546875 98.371094 390.480469 98.371094 Z M 398.210938 105.882812 C 400.023438 105.882812 401.5 107.359375 401.5 109.171875 C 401.5 110.988281 400.023438 112.464844 398.210938 112.464844 C 396.398438 112.464844 394.917969 110.988281 394.917969 109.171875 C 394.917969 107.351562 396.398438 105.882812 398.210938 105.882812 Z M 368.546875 97.222656 C 371.53125 97.222656 373.945312 99.636719 373.945312 102.625 C 373.945312 105.605469 371.53125 108.019531 368.546875 108.019531 C 365.570312 108.019531 363.15625 105.605469 363.15625 102.625 C 363.15625 99.636719 365.570312 97.222656 368.546875 97.222656 Z M 150.308594 56.566406 C 152.96875 56.566406 155.132812 58.71875 155.132812 61.394531 C 155.132812 64.054688 152.980469 66.222656 150.308594 66.222656 C 147.644531 66.222656 145.488281 64.054688 145.488281 61.394531 C 145.480469 58.71875 147.644531 56.566406 150.308594 56.566406 Z M 107.429688 16.128906 C 108.492188 16.128906 109.351562 16.988281 109.351562 18.042969 C 109.351562 19.097656 108.492188 19.957031 107.429688 19.957031 C 106.375 19.957031 105.515625 19.097656 105.515625 18.042969 C 105.515625 16.988281 106.367188 16.128906 107.429688 16.128906 Z M 121.511719 19.652344 C 123.335938 19.652344 124.8125 21.132812 124.8125 22.945312 C 124.8125 24.765625 123.335938 26.246094 121.511719 26.246094 C 119.699219 26.246094 118.222656 24.765625 118.222656 22.945312 C 118.222656 21.121094 119.699219 19.652344 121.511719 19.652344 Z M 78.414062 31.90625 C 80.78125 31.90625 82.695312 33.832031 82.695312 36.199219 C 82.695312 38.566406 80.773438 40.480469 78.414062 40.480469 C 76.046875 40.480469 74.125 38.558594 74.125 36.199219 C 74.125 33.820312 76.046875 31.90625 78.414062 31.90625 Z M 65.78125 39.566406 C 67.347656 39.566406 68.613281 40.832031 68.613281 42.394531 C 68.613281 43.957031 67.347656 45.234375 65.78125 45.234375 C 64.21875 45.234375 62.945312 43.96875 62.945312 42.394531 C 62.945312 40.832031 64.21875 39.566406 65.78125 39.566406 Z M 80.484375 43.078125 C 82.472656 43.078125 84.082031 44.699219 84.082031 46.675781 C 84.082031 48.667969 82.472656 50.277344 80.484375 50.277344 C 78.496094 50.277344 76.886719 48.667969 76.886719 46.675781 C 76.878906 44.699219 78.488281 43.078125 80.484375 43.078125 Z M 123.742188 49.980469 C 125.765625 49.980469 127.421875 51.625 127.421875 53.660156 C 127.421875 55.695312 125.777344 57.332031 123.742188 57.332031 C 121.707031 57.332031 120.070312 55.6875 120.070312 53.660156 C 120.070312 51.636719 121.707031 49.980469 123.742188 49.980469 Z M 209.484375 59.929688 C 211.511719 59.929688 213.164062 61.578125 213.164062 63.613281 C 213.164062 65.648438 211.519531 67.285156 209.484375 67.285156 C 207.449219 67.285156 205.8125 65.636719 205.8125 63.613281 C 205.8125 61.585938 207.460938 59.929688 209.484375 59.929688 Z M 189.800781 48.296875 C 193.804688 48.296875 197.046875 51.542969 197.046875 55.546875 C 197.046875 59.550781 193.804688 62.808594 189.800781 62.808594 C 185.796875 62.808594 182.539062 59.550781 182.539062 55.546875 C 182.539062 51.542969 185.785156 48.296875 189.800781 48.296875 Z M 113.171875 40.785156 C 115.457031 40.785156 117.304688 42.636719 117.304688 44.921875 C 117.304688 47.203125 115.445312 49.054688 113.171875 49.054688 C 110.886719 49.054688 109.039062 47.195312 109.039062 44.921875 C 109.039062 42.636719 110.886719 40.785156 113.171875 40.785156 Z M 92.652344 28.53125 C 94.171875 28.53125 95.410156 29.769531 95.410156 31.285156 C 95.410156 32.804688 94.171875 34.035156 92.652344 34.035156 C 91.136719 34.035156 89.90625 32.804688 89.90625 31.285156 C 89.898438 29.769531 91.128906 28.53125 92.652344 28.53125 Z M 92.652344 28.53125 " fill-opacity="1" fill-rule="evenodd"/></g><g clip-path="url(#97eeac653c)"><g clip-path="url(#ddc5dc8de8)"><g clip-path="url(#655ef09c4d)"><path fill="#ffffff" d="M 644.054688 -2.070312 C 268.269531 -24.636719 218.296875 222.664062 -191.042969 172.214844 L -157.390625 -100.84375 L -157.179688 -102.566406 L -135.679688 -277.011719 L 715.007812 -172.171875 L 693.507812 2.273438 L 693.296875 3.996094 Z M 644.054688 -2.070312 " fill-opacity="1" fill-rule="nonzero"/></g></g></g></svg>